<?xml version="1.0" encoding="UTF-8" standalone="no"?>
<!-- Created with Inkscape (http://www.inkscape.org/) -->

<svg xmlns:svg="http://www.w3.org/2000/svg" xmlns="http://www.w3.org/2000/svg" version="1.1" width="14" height="18" id="svg2">
  <defs id="defs4" />
  <g transform="translate(0,-1034.3622)" id="layer1">
    <path d="m 6.3682251,1047.4272 c -0.7130862,-2.2467 -2.510556,-2.5894 -4.2833333,-0.8167 -0.6508334,0.6509 -1.45487709,0.9118 -1.78676387,0.5799 -0.33188678,-0.3319 0.55182833,-1.3603 1.96381137,-2.2855 2.1360928,-1.3996 2.3889711,-2.0152 1.5057435,-3.6656 -1.1314862,-2.1142 -0.4157428,-3.8084 0.9486307,-2.2454 0.4481153,0.5133 1.358679,2.8458 2.0234749,5.1833 1.2951607,4.5539 2.1567914,5.1257 4.1340566,2.7432 1.001031,-1.2061 0.99793,-2.4089 -0.01555,-6.0286 -1.8146699,-6.4814 -0.729343,-6.421 1.48123,0.082 1.829661,5.3828 1.828654,5.5141 -0.05317,6.938 -2.7146052,2.0541 -5.1762953,1.8523 -5.9181299,-0.485 z" id="path2852" style="fill:#0a0a0a" />
  </g>
</svg>
