<?xml version="1.0" encoding="UTF-8" standalone="no"?>
<!-- This file is part of the topostyle project by AfriSpatial (https://github.com/AfriSpatial/topostyle) and it is licensed under a Creative Commons Attribution-ShareAlike 2.5 South Africa Licence.-->
<!-- Created with Inkscape (http://www.inkscape.org/) -->

<svg xmlns:svg="http://www.w3.org/2000/svg" xmlns="http://www.w3.org/2000/svg" version="1.1" width="29" height="17" id="svg2">
  <defs id="defs4" />
  <g transform="translate(0,-1035.3622)" id="layer1">
    <g transform="translate(0.10948838,1.8840865e-8)" id="g2830">
      <path d="m -9.6402466e-5,1043.9316 0,-8.5 15.000000402466,0 15,0 0,8.5 0,8.5 -15,0 -15.000000402466,0 0,-8.5 z" id="path2846" style="fill:#fdfdfc" />
      <path d="m 18.249381,1051.1816 c 0.254899,-0.6875 1.060601,-4.2875 1.790447,-8 1.019287,-5.1848 1.72356,-6.75 3.037204,-6.75 1.502351,0 1.588561,0.5165 0.709312,4.25 -2.537529,10.7748 -2.905363,11.75 -4.431973,11.75 -0.862644,0 -1.35989,-0.5625 -1.10499,-1.25 z m 5.750523,-0.9181 c 0,-0.6424 0.496195,-4.0174 1.102655,-7.5 0.781995,-4.4905 1.541377,-6.3319 2.611291,-6.3319 1.155278,0 1.371736,0.7612 0.924153,3.25 -0.321466,1.7875 -0.87906,5.1625 -1.239099,7.5 -0.403111,2.6171 -1.181817,4.25 -2.026808,4.25 -0.754706,0 -1.372192,-0.5256 -1.372192,-1.1681 z m -19.7500004,-1.0524 c -2.4053784,-1.1601 -2.8491016,-2.2912 -1.2793677,-3.2613 1.3514653,-0.8353 7.2288341,2.35 6.5030469,3.5244 -0.7445717,1.2047 -2.3475765,1.124 -5.2236792,-0.2631 z m 10.0788464,-1.0295 c 1.084097,-4.4702 1.670555,-8.2234 1.093803,-7 -0.844644,1.7916 -2.800175,1.5498 -6.8654892,-0.8488 -4.123854,-2.4331 -4.6776462,-4.3485 -1.0571602,-3.6564 1.375,0.2628 2.5,0.038 2.5,-0.5 0,-0.5631 1.1666754,-0.6929 2.7500004,-0.306 1.5125,0.3696 3.7625,0.6521 5,0.6278 2.685563,-0.053 2.733638,0.5785 0.618225,8.1178 -1.045223,3.7251 -2.162561,5.8156 -3.108408,5.8156 -1.026334,0 -1.310233,-0.6861 -0.930971,-2.25 z m -9.5788464,-4.3157 c -3.95845514,-2.0606 -4.73684413,-2.9277 -4.67105263,-5.2035 0.04342105,-1.5019 0.31091147,-2.1533 0.59442316,-1.4475 0.28351168,0.7058 3.17298537,2.6247 6.42105267,4.2644 5.8269992,2.9414 7.5678322,4.9965 4.1555772,4.9057 -0.9625,-0.026 -3.8875004,-1.1592 -6.5000004,-2.5191 z" id="path2844" style="fill:#ede5dd" />
      <path d="m 18.812199,1051.9106 c -0.923472,-0.9235 2.683411,-14.8109 3.956989,-15.2354 1.452122,-0.4841 1.566048,1.905 0.32219,6.7564 -0.493555,1.925 -1.174619,4.7375 -1.513475,6.25 -0.581174,2.5941 -1.588633,3.406 -2.765704,2.229 z m 5.187705,-1.6137 c 0,-0.6241 0.527783,-3.9991 1.172852,-7.5 0.79723,-4.3267 1.633532,-6.3653 2.611291,-6.3653 1.076081,0 1.291202,0.8187 0.853956,3.25 -0.321466,1.7875 -0.87906,5.1625 -1.239099,7.5 -0.403111,2.6171 -1.181817,4.25 -2.026808,4.25 -0.754706,0 -1.372192,-0.5106 -1.372192,-1.1347 z m -19.3602812,-1.4951 c -1.8980013,-1.0283 -2.5254071,-1.8845 -1.8649018,-2.545 1.2365755,-1.2366 7.571221,1.8059 6.6988618,3.2174 -0.7802105,1.2624 -1.4296754,1.1721 -4.83396,-0.6724 z m 9.3711052,0.8798 c 0.006,-0.4125 0.636858,-2.8125 1.40201,-5.3333 1.132038,-3.7296 1.147781,-4.5834 0.08452,-4.5834 -0.718667,0 -1.076427,0.6 -0.79502,1.3334 0.281402,0.7333 -0.0044,1.3333 -0.635183,1.3333 -1.900166,0 -9.0671514,-3.9682 -9.0671514,-5.0203 0,-1.2713 1.6338102,-1.246 4.0800158,0.063 1.4780866,0.7911 1.8847276,0.7307 1.6842586,-0.25 -0.163526,-0.7999 0.498173,-1.156 1.735726,-0.934 1.1,0.1973 3.2375,0.3744 4.75,0.3935 3.234288,0.041 3.233837,0.038 1.086049,7.7628 -0.972127,3.4965 -2.219442,5.9849 -3,5.9849 -0.734827,0 -1.331178,-0.3375 -1.325225,-0.75 z m -9.2608244,-5.8157 c -3.9837166,-2.0737 -4.73128633,-2.9132 -4.63399865,-5.2035 0.0638007,-1.5019 0.3119636,-1.9944 0.55147302,-1.0943 0.23950942,0.9001 3.11230883,2.8379 6.38399863,4.3061 5.8266864,2.6149 7.6775444,4.6034 4.1985274,4.5108 -0.9625,-0.026 -3.8875004,-1.1592 -6.5000004,-2.5191 z" id="path2842" style="fill:#e5d4c4" />
      <path d="m 18.789965,1051.8883 c -0.666276,-0.6662 2.242012,-13.7249 3.316167,-14.89 1.802003,-1.9547 1.918577,0.4294 0.356756,7.2962 -1.518469,6.6762 -2.51995,8.7468 -3.672923,7.5938 z m 5.209939,-1.5914 c 0,-3.9131 2.538303,-13.8653 3.536337,-13.8653 1.12464,0 0.747449,4.4575 -1.078899,12.75 -0.50494,2.2927 -2.457438,3.1788 -2.457438,1.1153 z m -19.2796711,-1.4528 c -3.75566506,-2.0368 -2.4683599,-3.8507 1.3364215,-1.8832 1.618787,0.8372 2.9432492,1.9605 2.9432492,2.4964 0,1.3154 -0.9831493,1.1745 -4.2796707,-0.6132 z m 9.2904951,0.9208 c 0.006,-0.4583 0.636858,-2.8958 1.40201,-5.4166 1.167024,-3.8449 1.172368,-4.5834 0.03316,-4.5834 -0.746911,0 -1.145475,0.3439 -0.885697,0.7643 0.259777,0.4203 0.03042,1.0373 -0.509693,1.3711 -1.212431,0.7493 -9.0506044,-3.1383 -9.0506044,-4.489 0,-1.2713 1.6338102,-1.246 4.0800158,0.063 1.4780866,0.7911 1.8847276,0.7307 1.6842586,-0.25 -0.162128,-0.7931 0.508754,-1.1648 1.735726,-0.9617 1.1,0.1822 3.009245,0.4414 4.242767,0.5761 1.233522,0.1348 2.452596,0.4548 2.709052,0.7113 0.831068,0.8311 -2.99098,12.2279 -4.240428,12.6444 -0.666265,0.2221 -1.20652,0.029 -1.200567,-0.4296 z m -9.2608244,-5.899 c -2.6125,-1.36 -4.750000002466,-3.1348 -4.750000002466,-3.9441 0,-1.1189 1.544320402466,-0.71 6.443566402466,1.7059 3.5439615,1.7476 6.217404,3.5434 5.940983,3.9907 -0.800171,1.2947 -2.5541108,0.8921 -7.6345494,-1.7525 z" id="path2840" style="fill:#e5ccc4" />
      <path d="m 19.769771,1044.6816 c 1.445206,-6.6095 2.639662,-9.1738 3.754095,-8.0594 1.037583,1.0376 -2.642313,14.8094 -3.957143,14.8094 -1.010444,0 -0.968581,-1.3917 0.203048,-6.75 z m 4.230133,5.6153 c 0,-3.9131 2.538303,-13.8653 3.536337,-13.8653 1.12464,0 0.747449,4.4575 -1.078899,12.75 -0.50494,2.2927 -2.457438,3.1788 -2.457438,1.1153 z m -19.5000004,-1.6087 c -2.2959733,-1.273 -2.6016165,-1.7478 -1.3024075,-2.0232 1.9969931,-0.4233 5.8024075,1.4142 5.8024075,2.8018 0,1.3325 -1.0063969,1.1584 -4.5,-0.7786 z m 9.5108244,1.0767 c 0.006,-0.4583 0.637006,-2.8963 1.402339,-5.4177 l 1.391514,-4.5845 -3.501686,-1.2662 c -2.315603,-0.8373 -3.165682,-1.6022 -2.509698,-2.2582 0.655984,-0.656 1.68352,-0.6219 3.033606,0.1007 1.12289,0.6009 3.001526,1.0926 4.174747,1.0926 1.624512,0 1.992374,0.4435 1.542806,1.8599 -0.324678,1.023 -1.152388,3.8013 -1.839356,6.174 -0.686967,2.3728 -1.801646,4.4983 -2.477064,4.7234 -0.675418,0.2252 -1.223161,0.034 -1.217208,-0.424 z m -8.5108244,-6.0018 c -5.91790166,-3.0482 -6.02970811,-3.1351 -5.15502766,-4.0098 0.92157286,-0.9216 12.70454606,4.7892 12.05384606,5.842 -0.738891,1.1956 -1.320314,1.0412 -6.8988184,-1.8322 z m 3.2527018,-3.69 c -3.652387,-2.0873 -4.8102582,-3.6415 -2.7128637,-3.6415 2.1249651,0 9.0093373,4.1114 8.4364653,5.0383 -0.780226,1.2625 -1.286774,1.1389 -5.7236016,-1.3968 z" id="path2838" style="fill:#e5ccbc" />
      <path d="m 18.999904,1050.879 c 0,-2.5438 3.361733,-14.4474 4.080154,-14.4474 1.185846,0 1.194095,-0.1006 -0.660308,8.0526 -0.869084,3.8211 -1.994084,6.9474 -2.5,6.9474 -0.505915,0 -0.919846,-0.2487 -0.919846,-0.5526 z m 5.567062,-2.1974 c 0.284384,-1.5125 0.842051,-4.7396 1.239261,-7.1714 0.397209,-2.4318 1.220143,-4.5874 1.828742,-4.7903 1.032823,-0.3443 0.574422,4.5065 -1.177627,12.4617 -0.715872,3.2504 -2.506486,2.7768 -1.890376,-0.5 z m -19.3170624,0.5295 c -2.3366589,-1.1269 -3.0407693,-2.7795 -1.1842585,-2.7795 1.7098175,0 4.9342585,1.9834 4.9342585,3.0352 0,1.1956 -0.8628497,1.1367 -3.75,-0.2557 z m 8.7500004,0.8689 c 0,-0.285 0.384108,-1.56 0.853574,-2.8333 1.921545,-5.2117 2.206902,-7.8151 0.856608,-7.8151 -1.842819,0 -5.351573,-2.6919 -4.55154,-3.492 0.360523,-0.3605 1.934816,-0.01 3.498428,0.7811 1.563611,0.7901 3.452652,1.22 4.197869,0.9554 0.96183,-0.3415 1.172773,0.093 0.727064,1.4971 -0.345331,1.0881 -1.189939,3.9196 -1.876907,6.2923 -0.686967,2.3728 -1.801646,4.4983 -2.477064,4.7234 -0.675418,0.2252 -1.228032,0.1762 -1.228032,-0.1089 z m -8.5000004,-6.3169 c -5.91790166,-3.0482 -6.02970811,-3.1351 -5.15502766,-4.0098 0.92157286,-0.9216 12.70454606,4.7892 12.05384606,5.842 -0.738891,1.1956 -1.320314,1.0412 -6.8988184,-1.8322 z m 3.2527018,-3.69 c -3.652387,-2.0873 -4.8102582,-3.6415 -2.7128637,-3.6415 2.1249651,0 9.0093373,4.1114 8.4364653,5.0383 -0.780226,1.2625 -1.286774,1.1389 -5.7236016,-1.3968 z" id="path2836" style="fill:#ddbcab" />
      <path d="m 18.999904,1050.879 c 0,-2.7465 3.392295,-14.4474 4.188562,-14.4474 0.569328,0 0.774267,1.012 0.459179,2.2674 -0.312991,1.247 -1.074064,4.622 -1.691272,7.5 -0.617209,2.8779 -1.534908,5.2326 -2.039333,5.2326 -0.504425,0 -0.917136,-0.2487 -0.917136,-0.5526 z m 5.567062,-2.1974 c 0.284384,-1.5125 0.842051,-4.7396 1.239261,-7.1714 0.397209,-2.4318 1.220143,-4.5874 1.828742,-4.7903 1.032823,-0.3443 0.574422,4.5065 -1.177627,12.4617 -0.715872,3.2504 -2.506486,2.7768 -1.890376,-0.5 z m -19.3170624,0.5295 c -2.3366589,-1.1269 -3.0407693,-2.7795 -1.1842585,-2.7795 1.7098175,0 4.9342585,1.9834 4.9342585,3.0352 0,1.1956 -0.8628497,1.1367 -3.75,-0.2557 z m 8.7608244,1.0538 c 0.006,-0.1833 0.681759,-2.545 1.50179,-5.2482 0.820031,-2.7032 1.37766,-4.9745 1.239176,-5.0475 -0.138485,-0.073 -1.48929,-0.6641 -3.00179,-1.3137 -1.5125,-0.6496 -2.75,-1.6522 -2.75,-2.2281 0,-0.6225 1.190967,-0.4313 2.936655,0.4714 1.61516,0.8353 3.615713,1.2581 4.445673,0.9396 1.302314,-0.4998 1.266532,0.2808 -0.261222,5.6986 -0.973632,3.4527 -2.299185,6.454 -2.945673,6.6695 -0.646488,0.2155 -1.170562,0.2418 -1.164609,0.058 z m -8.5108244,-6.5018 c -5.74633663,-2.9598 -6.01279334,-3.152 -5.32371527,-3.8411 0.28028993,-0.2803 3.29516197,0.7548 6.69971557,2.3003 3.4045541,1.5454 5.8752261,3.1247 5.4903821,3.5096 -0.989725,0.9897 -1.289321,0.9038 -6.8663824,-1.9688 z m 4,-3.399 c -1.65,-1.0567 -3.45,-2.0872 -4,-2.29 -0.55,-0.2028 -0.7169128,-0.6759 -0.3709173,-1.0513 0.8564399,-0.9294 9.9030247,3.5478 9.2625757,4.5841 -0.709662,1.1483 -1.453091,0.9594 -4.8916584,-1.2428 z" id="path2834" style="fill:#cea78e" />
      <path d="m 19.331463,1049.4142 c 0.324376,-1.3845 1.101423,-4.9031 1.726771,-7.819 0.625347,-2.9159 1.381902,-5.0567 1.681232,-4.7574 0.769725,0.7698 -1.818412,12.8865 -3.010424,14.0938 -0.651574,0.6599 -0.786783,0.1439 -0.397579,-1.5174 z m 4.981007,0.6452 c 0.289599,-0.7546 0.843729,-3.5671 1.231399,-6.25 0.38767,-2.6828 1.124723,-5.5528 1.637896,-6.3778 0.638974,-1.0272 0.765798,-0.3969 0.402398,2 -0.291854,1.925 -0.82522,5.4125 -1.185259,7.75 -0.360039,2.3375 -1.095248,4.25 -1.633797,4.25 -0.538549,0 -0.742236,-0.6175 -0.452637,-1.3722 z m -8.690634,-4.7264 c 0.832772,-2.8043 1.371017,-5.1882 1.1961,-5.2976 -0.174918,-0.1093 -1.555532,-0.7303 -3.068032,-1.3799 -1.5125,-0.6496 -2.75,-1.6522 -2.75,-2.2281 0,-0.6152 1.249614,-0.401 3.029368,0.5194 1.666152,0.8616 3.466152,1.2966 4,0.9666 1.285258,-0.7943 1.249038,-0.453 -0.693319,6.5333 -0.915173,3.2917 -2.015918,5.9849 -2.4461,5.9849 -0.430182,0 -0.10079,-2.2944 0.731983,-5.0986 z m -11.1808028,2.6304 c -2.485895,-1.8802 -0.7131671,-1.9023 2.5588704,-0.032 1.6024305,0.916 1.9403222,1.4419 0.9411296,1.4646 -0.8573787,0.02 -2.4323787,-0.6253 -3.5,-1.4328 z m 1.0588704,-4.2003 c -5.79107516,-2.9828 -6.01654008,-3.1483 -5.28578,-3.8791 0.70462085,-0.7046 11.7857804,4.7072 11.7857804,5.7559 0,1.2228 -1.097411,0.9059 -6.5000004,-1.8768 z m 3.7082763,-3.6683 c -2.360448,-1.2355 -3.9922283,-2.5459 -3.6261784,-2.912 0.8576548,-0.8576 8.4179025,2.9765 8.4179025,4.2691 0,1.2236 0.301999,1.3091 -4.7917241,-1.3571 z" id="path2832" style="fill:#cc9b8a" />
    </g>
  </g>
</svg>
