<?xml version="1.0" encoding="UTF-8" standalone="no"?>
<!-- Created with Inkscape (http://www.inkscape.org/) -->

<svg
   xmlns:dc="http://purl.org/dc/elements/1.1/"
   xmlns:cc="http://creativecommons.org/ns#"
   xmlns:rdf="http://www.w3.org/1999/02/22-rdf-syntax-ns#"
   xmlns:svg="http://www.w3.org/2000/svg"
   xmlns="http://www.w3.org/2000/svg"
   xmlns:sodipodi="http://sodipodi.sourceforge.net/DTD/sodipodi-0.dtd"
   xmlns:inkscape="http://www.inkscape.org/namespaces/inkscape"
   width="744.09448819"
   height="1052.3622047"
   id="svg2"
   version="1.1"
   inkscape:version="0.48.3.1 r9886"
   sodipodi:docname="cultivatedland.svg">
  <defs
     id="defs4" />
  <sodipodi:namedview
     id="base"
     pagecolor="#ffffff"
     bordercolor="#666666"
     borderopacity="1.0"
     inkscape:pageopacity="0.0"
     inkscape:pageshadow="2"
     inkscape:zoom="0.35"
     inkscape:cx="375"
     inkscape:cy="596.74496"
     inkscape:document-units="px"
     inkscape:current-layer="layer1"
     showgrid="false"
     inkscape:window-width="1301"
     inkscape:window-height="744"
     inkscape:window-x="65"
     inkscape:window-y="24"
     inkscape:window-maximized="1" />
  <metadata
     id="metadata7">
    <rdf:RDF>
      <cc:Work
         rdf:about="">
        <dc:format>image/svg+xml</dc:format>
        <dc:type
           rdf:resource="http://purl.org/dc/dcmitype/StillImage" />
        <dc:title></dc:title>
      </cc:Work>
    </rdf:RDF>
  </metadata>
  <g
     inkscape:label="Layer 1"
     inkscape:groupmode="layer"
     id="layer1">
    <path
       style="fill:#000000;stroke:#000000;stroke-width:1px;stroke-linecap:butt;stroke-linejoin:miter;stroke-opacity:1;fill-opacity:1"
       d="m 174.28571,466.6479 0,34.28571 34.28572,14.28572 14.28571,20 5.71429,20 -51.42857,-2.85715 0,28.57143 80,0 11.42857,25.71429 11.42857,17.14285 31.42857,0 20,-2.85714 14.28572,-34.28571 65.71428,-2.85715 17.14286,-2.85714 0,-28.57143 -88.57143,0 z"
       id="path4280"
       inkscape:connector-curvature="0" />
    <path
       style="fill:#000000;stroke:#000000;stroke-width:1px;stroke-linecap:butt;stroke-linejoin:miter;stroke-opacity:1;fill-opacity:1"
       d="m 240,500.93361 17.14286,-14.28571 -2.85715,-14.28572 22.85715,5.71429 25.71428,-14.28572 -2.85714,25.71429 -28.57143,5.71429 -17.14286,14.28571 2.85715,0"
       id="path4282"
       inkscape:connector-curvature="0" />
    <path
       style="fill:#ffffff;stroke:#000000;stroke-width:1px;stroke-linecap:butt;stroke-linejoin:miter;stroke-opacity:1;fill-opacity:1"
       d="m 305.71429,572.36218 -14.28572,17.14286 14.28572,8.57143 L 320,589.50504 z"
       id="path4286"
       inkscape:connector-curvature="0" />
    <path
       style="fill:#000000;stroke:#000000;stroke-width:1px;stroke-linecap:butt;stroke-linejoin:miter;stroke-opacity:1;fill-opacity:1"
       d="m 302.85714,529.50504 14.28572,-14.28571 -5.71429,-28.57143 5.71429,-11.42857 20,-2.85715 14.28571,-5.71428 14.28572,-11.42857 11.42857,28.57142 0,11.42858 -11.42857,8.57142 -14.28572,-5.71428 -14.28571,14.28571 8.57143,14.28572 2.85714,5.71428 -14.28572,2.85715 -17.14285,5.71428"
       id="path4288"
       inkscape:connector-curvature="0" />
  </g>
</svg>
